mtllib xxx.mtl
v 0.5 0.12940950691699982 0.48296287655830383
v 0.5 -0.1294095367193222 0.48296287655830383
v 0.5 -0.3535534143447876 0.3535533845424652
v 0.5 -0.4829629361629486 0.12940950691699982
v 0.5 -0.4829629361629486 -0.1294095367193222
v 0.5 -0.35355344414711 -0.3535534143447876
v 0.5 -0.1294095665216446 -0.4829629361629486
v 0.5 0.12940947711467743 -0.4829629361629486
v 0.5 0.3535533547401428 -0.35355344414711
v 0.5 0.48296287655830383 -0.1294095665216446
v 0.5 0.48296287655830383 0.12940947711467743
v 0.5 0.3535533845424652 0.3535533547401428
v -0.5 0.12940950691699982 0.48296287655830383
v -0.5 -0.1294095367193222 0.48296287655830383
v -0.5 -0.3535534143447876 0.3535533845424652
v -0.5 -0.4829629361629486 0.12940950691699982
v -0.5 -0.4829629361629486 -0.1294095367193222
v -0.5 -0.35355344414711 -0.3535534143447876
v -0.5 -0.1294095665216446 -0.4829629361629486
v -0.5 0.12940947711467743 -0.4829629361629486
v -0.5 0.3535533547401428 -0.35355344414711
v -0.5 0.48296287655830383 -0.1294095665216446
v -0.5 0.48296287655830383 0.12940947711467743
v -0.5 0.3535533845424652 0.3535533547401428
v 0.5 -2.9802322387695312e-8 -2.9802322387695312e-8
v -0.5 -2.9802322387695312e-8 -2.9802322387695312e-8
v 0.5 0.12940950691699982 0.48296287655830383
v 0.5 0.12940950691699982 0.48296287655830383
v 0.5 0.12940950691699982 0.48296287655830383
v 0.5 -0.1294095367193222 0.48296287655830383
v 0.5 -0.3535534143447876 0.3535533845424652
v 0.5 -0.4829629361629486 0.12940950691699982
v 0.5 -0.4829629361629486 -0.1294095367193222
v 0.5 -0.35355344414711 -0.3535534143447876
v 0.5 -0.1294095665216446 -0.4829629361629486
v 0.5 0.12940947711467743 -0.4829629361629486
v 0.5 0.3535533547401428 -0.35355344414711
v 0.5 0.48296287655830383 -0.1294095665216446
v 0.5 0.48296287655830383 0.12940947711467743
v 0.5 0.3535533845424652 0.3535533547401428
v -0.5 0.12940950691699982 0.48296287655830383
v -0.5 0.12940950691699982 0.48296287655830383
v -0.5 0.12940950691699982 0.48296287655830383
v -0.5 -0.1294095367193222 0.48296287655830383
v -0.5 -0.3535534143447876 0.3535533845424652
v -0.5 -0.4829629361629486 0.12940950691699982
v -0.5 -0.4829629361629486 -0.1294095367193222
v -0.5 -0.35355344414711 -0.3535534143447876
v -0.5 -0.1294095665216446 -0.4829629361629486
v -0.5 0.12940947711467743 -0.4829629361629486
v -0.5 0.3535533547401428 -0.35355344414711
v -0.5 0.48296287655830383 -0.1294095665216446
v -0.5 0.48296287655830383 0.12940947711467743
v -0.5 0.3535533845424652 0.3535533547401428
v 0.5 -2.9802322387695312e-8 -2.9802322387695312e-8
v 0.5 -2.9802322387695312e-8 -2.9802322387695312e-8
v 0.5 -2.9802322387695312e-8 -2.9802322387695312e-8
v 0.5 -2.9802322387695312e-8 -2.9802322387695312e-8
v 0.5 -2.9802322387695312e-8 -2.9802322387695312e-8
v 0.5 -2.9802322387695312e-8 -2.9802322387695312e-8
v 0.5 -2.9802322387695312e-8 -2.9802322387695312e-8
v 0.5 -2.9802322387695312e-8 -2.9802322387695312e-8
v 0.5 -2.9802322387695312e-8 -2.9802322387695312e-8
v 0.5 -2.9802322387695312e-8 -2.9802322387695312e-8
v 0.5 -2.9802322387695312e-8 -2.9802322387695312e-8
v -0.5 -2.9802322387695312e-8 -2.9802322387695312e-8
v -0.5 -2.9802322387695312e-8 -2.9802322387695312e-8
v -0.5 -2.9802322387695312e-8 -2.9802322387695312e-8
v -0.5 -2.9802322387695312e-8 -2.9802322387695312e-8
v -0.5 -2.9802322387695312e-8 -2.9802322387695312e-8
v -0.5 -2.9802322387695312e-8 -2.9802322387695312e-8
v -0.5 -2.9802322387695312e-8 -2.9802322387695312e-8
v -0.5 -2.9802322387695312e-8 -2.9802322387695312e-8
v -0.5 -2.9802322387695312e-8 -2.9802322387695312e-8
v -0.5 -2.9802322387695312e-8 -2.9802322387695312e-8
v -0.5 -2.9802322387695312e-8 -2.9802322387695312e-8
v 0.5 0.3535533845424652 0.3535533547401428
v -0.5 -0.1294095367193222 0.48296287655830383
v -0.5 -0.3535534143447876 0.3535533845424652
v -0.5 -0.4829629361629486 0.12940950691699982
v -0.5 -0.4829629361629486 -0.1294095367193222
v -0.5 -0.35355344414711 -0.3535534143447876
v -0.5 -0.1294095665216446 -0.4829629361629486
v -0.5 0.12940947711467743 -0.4829629361629486
v -0.5 0.3535533547401428 -0.35355344414711
v -0.5 0.48296287655830383 -0.1294095665216446
v -0.5 0.48296287655830383 0.12940947711467743
v 0.5 -0.1294095367193222 0.48296287655830383
v 0.5 -0.3535534143447876 0.3535533845424652
v 0.5 -0.4829629361629486 0.12940950691699982
v 0.5 -0.4829629361629486 -0.1294095367193222
v 0.5 -0.35355344414711 -0.3535534143447876
v 0.5 -0.1294095665216446 -0.4829629361629486
v 0.5 0.12940947711467743 -0.4829629361629486
v 0.5 0.3535533547401428 -0.35355344414711
v 0.5 0.48296287655830383 -0.1294095665216446
v 0.5 0.48296287655830383 0.12940947711467743
v -0.5 0.3535533845424652 0.3535533547401428
vt 1 1
vt 0.0833333432674408 1
vt 0.16666670143604279 1
vt 0.25 1
vt 0.3333333134651184 1
vt 0.4166666865348816 1
vt 0.5 1
vt 0.5833333134651184 1
vt 0.6666666865348816 1
vt 0.75 1
vt 0.8333333134651184 1
vt 0.9166666865348816 1
vt 0 0
vt 0.0833333432674408 0
vt 0.16666670143604279 0
vt 0.25 0
vt 0.3333333134651184 0
vt 0.4166666865348816 0
vt 0.5 0
vt 0.5833333134651184 0
vt 0.6666666865348816 0
vt 0.75 0
vt 0.8333333134651184 0
vt 0.9166666865348816 0
vt 1 0
vt 0 1
vt 1 1
vt 0 1
vt 0 1
vt 0.0833333432674408 1
vt 0.16666670143604279 1
vt 0.25 1
vt 0.3333333134651184 1
vt 0.4166666865348816 1
vt 0.5 1
vt 0.5833333134651184 1
vt 0.6666666865348816 1
vt 0.75 1
vt 0.8333333134651184 1
vt 0.9166666865348816 1
vt 1 0
vt 1 0
vt 0 0
vt 0.0833333432674408 0
vt 0.16666670143604279 0
vt 0.25 0
vt 0.3333333134651184 0
vt 0.4166666865348816 0
vt 0.5 0
vt 0.5833333134651184 0
vt 0.6666666865348816 0
vt 0.75 0
vt 0.8333333134651184 0
vt 0.9166666865348816 0
vt 0.0833333432674408 0
vt 0.16666670143604279 0
vt 0.25 0
vt 0.3333333134651184 0
vt 0.4166666865348816 0
vt 0.5 0
vt 0.5833333134651184 0
vt 0.6666666865348816 0
vt 0.75 0
vt 0.8333333134651184 0
vt 0.9166666865348816 0
vt 0.9166666865348816 1
vt 0.8333333134651184 1
vt 0.75 1
vt 0.6666666865348816 1
vt 0.5833333134651184 1
vt 0.5 1
vt 0.4166666865348816 1
vt 0.3333333134651184 1
vt 0.25 1
vt 0.16666670143604279 1
vt 0.0833333432674408 1
vt 0.9166666865348816 1
vt 0.0833333432674408 0
vt 0.16666670143604279 0
vt 0.25 0
vt 0.3333333134651184 0
vt 0.4166666865348816 0
vt 0.5 0
vt 0.5833333134651184 0
vt 0.6666666865348816 0
vt 0.75 0
vt 0.8333333134651184 0
vt 0.0833333432674408 1
vt 0.16666670143604279 1
vt 0.25 1
vt 0.3333333134651184 1
vt 0.4166666865348816 1
vt 0.5 1
vt 0.5833333134651184 1
vt 0.6666666865348816 1
vt 0.75 1
vt 0.8333333134651184 1
vt 0.9166666865348816 0
vn 1 0 0
vn 1 0 0
vn 1 0 0
vn 1 0 0
vn 1 0 0
vn 1 0 0
vn 1 0 0
vn 1 0 0
vn 1 0 0
vn 1 0 0
vn 1 0 0
vn 0 0.7071068286895752 0.7071067690849304
vn 0 0.2588190734386444 0.9659258127212524
vn 0 -0.25881901383399963 0.9659258127212524
vn 0 -0.7071067690849304 0.7071068286895752
vn 0 -0.9659258127212524 0.2588190734386444
vn 0 -0.9659258127212524 -0.25881901383399963
vn 0 -0.7071068286895752 -0.7071067690849304
vn 0 -0.2588190734386444 -0.9659258127212524
vn 0 0.25881901383399963 -0.9659258127212524
vn 0 0.7071067690849304 -0.7071068286895752
vn 0 0.9659258127212524 -0.2588190734386444
vn 0 0.9659258127212524 0.25881901383399963
vn -1 0 0
vn 1 0 0
vn -1 0 0
vn 0 0.2588190734386444 0.9659258127212524
vn 0 0.2588190734386444 0.9659258127212524
vn 1 0 0
vn 0 -0.25881901383399963 0.9659258127212524
vn 0 -0.7071067690849304 0.7071068286895752
vn 0 -0.9659258127212524 0.2588190734386444
vn 0 -0.9659258127212524 -0.25881901383399963
vn 0 -0.7071068286895752 -0.7071067690849304
vn 0 -0.2588190734386444 -0.9659258127212524
vn 0 0.25881901383399963 -0.9659258127212524
vn 0 0.7071067690849304 -0.7071068286895752
vn 0 0.9659258127212524 -0.2588190734386444
vn 0 0.9659258127212524 0.25881901383399963
vn 1 0 0
vn 0 0.2588190734386444 0.9659258127212524
vn -1 0 0
vn -1 0 0
vn -1 0 0
vn -1 0 0
vn -1 0 0
vn -1 0 0
vn -1 0 0
vn -1 0 0
vn -1 0 0
vn -1 0 0
vn -1 0 0
vn -1 0 0
vn 0 0.7071068286895752 0.7071067690849304
vn 1 0 0
vn 1 0 0
vn 1 0 0
vn 1 0 0
vn 1 0 0
vn 1 0 0
vn 1 0 0
vn 1 0 0
vn 1 0 0
vn 1 0 0
vn 1 0 0
vn -1 0 0
vn -1 0 0
vn -1 0 0
vn -1 0 0
vn -1 0 0
vn -1 0 0
vn -1 0 0
vn -1 0 0
vn -1 0 0
vn -1 0 0
vn -1 0 0
vn 1 0 0
vn -1 0 0
vn -1 0 0
vn -1 0 0
vn -1 0 0
vn -1 0 0
vn -1 0 0
vn -1 0 0
vn -1 0 0
vn -1 0 0
vn -1 0 0
vn 1 0 0
vn 1 0 0
vn 1 0 0
vn 1 0 0
vn 1 0 0
vn 1 0 0
vn 1 0 0
vn 1 0 0
vn 1 0 0
vn 1 0 0
vn -1 0 0
usemtl 0
f 28/28/28 13/13/13 30/30/30
f 13/13/13 14/14/14 30/30/30
f 30/30/30 14/14/14 31/31/31
f 14/14/14 15/15/15 31/31/31
f 31/31/31 15/15/15 32/32/32
f 15/15/15 16/16/16 32/32/32
f 32/32/32 16/16/16 33/33/33
f 16/16/16 17/17/17 33/33/33
f 33/33/33 17/17/17 34/34/34
f 17/17/17 18/18/18 34/34/34
f 34/34/34 18/18/18 35/35/35
f 18/18/18 19/19/19 35/35/35
f 35/35/35 19/19/19 36/36/36
f 19/19/19 20/20/20 36/36/36
f 36/36/36 20/20/20 37/37/37
f 20/20/20 21/21/21 37/37/37
f 37/37/37 21/21/21 38/38/38
f 21/21/21 22/22/22 38/38/38
f 38/38/38 22/22/22 39/39/39
f 22/22/22 23/23/23 39/39/39
f 39/39/39 23/23/23 12/12/12
f 23/23/23 54/54/54 12/12/12
f 12/12/12 54/54/54 27/27/27
f 54/54/54 41/41/41 27/27/27
f 29/29/29 88/88/88 55/55/55
f 2/2/2 89/89/89 56/56/56
f 3/3/3 90/90/90 57/57/57
f 4/4/4 91/91/91 58/58/58
f 5/5/5 92/92/92 59/59/59
f 6/6/6 93/93/93 60/60/60
f 7/7/7 94/94/94 61/61/61
f 8/8/8 95/95/95 62/62/62
f 9/9/9 96/96/96 63/63/63
f 10/10/10 97/97/97 64/64/64
f 11/11/11 40/40/40 65/65/65
f 77/77/77 1/1/1 25/25/25
f 78/78/78 43/43/43 26/26/26
f 45/45/45 44/44/44 76/76/76
f 46/46/46 79/79/79 75/75/75
f 47/47/47 80/80/80 74/74/74
f 48/48/48 81/81/81 73/73/73
f 49/49/49 82/82/82 72/72/72
f 50/50/50 83/83/83 71/71/71
f 51/51/51 84/84/84 70/70/70
f 52/52/52 85/85/85 69/69/69
f 53/53/53 86/86/86 68/68/68
f 24/24/24 87/87/87 67/67/67
f 42/42/42 98/98/98 66/66/66
