mtllib 1.mtl
o 
v 2.7473676204681396 4.800599575042725 0.39997586607933044
v -0.8018855452537537 4.800599575042725 0.39997586607933044
v -0.8018855452537537 6.60082483291626 0.39997586607933044
v -2.7473669052124023 6.60082483291626 0.39997586607933044
v -2.7473669052124023 -6.600825309753418 0.39997586607933044
v 2.7473676204681396 -6.600825309753418 0.39997586607933044
v 2.7473676204681396 4.800599575042725 -0.39997532963752747
v 2.7473676204681396 -6.600825309753418 -0.39997532963752747
v -2.7473669052124023 -6.600825309753418 -0.39997532963752747
v -2.7473669052124023 6.60082483291626 -0.39997532963752747
v -0.8018855452537537 6.60082483291626 -0.39997532963752747
v -0.8018855452537537 4.800599575042725 -0.39997532963752747
v -0.0017855390906333923 4.800599575042725 -0.39997532963752747
v -2.7473669052124023 6.60082483291626 0.39997586607933044
v -0.8018855452537537 6.60082483291626 0.39997586607933044
v -0.8018855452537537 6.60082483291626 -0.39997532963752747
v -2.7473669052124023 6.60082483291626 -0.39997532963752747
v -2.7473669052124023 -6.600825309753418 0.39997586607933044
v -2.7473669052124023 6.60082483291626 0.39997586607933044
v -2.7473669052124023 6.60082483291626 -0.39997532963752747
v -2.7473669052124023 -6.600825309753418 -0.39997532963752747
v 2.7473676204681396 -6.600825309753418 0.39997586607933044
v -2.7473669052124023 -6.600825309753418 0.39997586607933044
v -2.7473669052124023 -6.600825309753418 -0.39997532963752747
v 2.7473676204681396 -6.600825309753418 -0.39997532963752747
v 2.7473676204681396 4.800599575042725 0.39997586607933044
v 2.7473676204681396 -6.600825309753418 0.39997586607933044
v 2.7473676204681396 -6.600825309753418 -0.39997532963752747
v 2.7473676204681396 4.800599575042725 -0.39997532963752747
v -0.8018855452537537 6.60082483291626 0.39997586607933044
v -0.8018855452537537 4.800599575042725 0.39997586607933044
v -0.8018855452537537 4.800599575042725 -0.39997532963752747
v -0.8018855452537537 6.60082483291626 -0.39997532963752747
v -0.8018855452537537 4.800599575042725 0.39997586607933044
v 2.7473676204681396 4.800599575042725 0.39997586607933044
v 2.7473676204681396 4.800599575042725 -0.39997532963752747
v -0.0017855390906333923 4.800599575042725 -0.39997532963752747
v -0.8018855452537537 4.800599575042725 -0.39997532963752747
vt 76254.78125 16325.3359375
vt 76254.78125 16329.703125
vt 76256.9921875 16329.703125
vt 76256.9921875 16332.0966796875
vt 76240.7578125 16332.0966796875
vt 76240.7578125 16325.3359375
vt 76254.78125 -16325.3359375
vt 76240.7578125 -16325.3359375
vt 76240.7578125 -16332.0966796875
vt 76256.9921875 -16332.0966796875
vt 76256.9921875 -16329.703125
vt 76254.78125 -16329.703125
vt 76254.78125 -16328.71875
vt -16332.0966796875 -0.8612204790115356
vt -16329.703125 -0.8612204790115356
vt -16329.703125 0.12303149700164795
vt -16332.0966796875 0.12303149700164795
vt 76240.7578125 -0.8612204790115356
vt 76256.9921875 -0.8612204790115356
vt 76256.9921875 0.12303149700164795
vt 76240.7578125 0.12303149700164795
vt 16325.3359375 -0.8612204790115356
vt 16332.0966796875 -0.8612204790115356
vt 16332.0966796875 0.12303149700164795
vt 16325.3359375 0.12303149700164795
vt 76254.78125 0.8612204790115356
vt 76240.7578125 0.8612204790115356
vt 76240.7578125 -0.12303149700164795
vt 76254.78125 -0.12303149700164795
vt 76256.9921875 0.8612204790115356
vt 76254.78125 0.8612204790115356
vt 76254.78125 -0.12303149700164795
vt 76256.9921875 -0.12303149700164795
vt -16329.703125 -0.8612204790115356
vt -16325.3359375 -0.8612204790115356
vt -16325.3359375 0.12303149700164795
vt -16328.71875 0.12303149700164795
vt -16329.703125 0.12303149700164795
vn 0 0 1
vn 0 0 1
vn 0 0 1
vn 0 0 1
vn 0 0 1
vn 0 0 1
vn 0 0 -1
vn 0 0 -1
vn 0 0 -1
vn 0 0 -1
vn 0 0 -1
vn 0 0 -1
vn 0 0 -1
vn 0 1 0
vn 0 1 0
vn 0 1 0
vn 0 1 0
vn -1 0 0
vn -1 0 0
vn -1 0 0
vn -1 0 0
vn 0 -1 0
vn 0 -1 0
vn 0 -1 0
vn 0 -1 0
vn 1 0 0
vn 1 0 0
vn 1 0 0
vn 1 0 0
vn 1 0 0
vn 1 0 0
vn 1 0 0
vn 1 0 0
vn 0 1 0
vn 0 1 0
vn 0 1 0
vn 0 1 0
vn 0 1 0
usemtl 1
f 6/6/6 1/1/1 2/2/2
f 6/6/6 2/2/2 5/5/5
f 4/4/4 5/5/5 2/2/2
f 4/4/4 2/2/2 3/3/3
f 12/12/12 9/9/9 10/10/10
f 12/12/12 10/10/10 11/11/11
f 8/8/8 9/9/9 13/13/13
f 8/8/8 13/13/13 7/7/7
f 13/13/13 9/9/9 12/12/12
f 14/14/14 15/15/15 16/16/16
f 16/16/16 17/17/17 14/14/14
f 18/18/18 19/19/19 20/20/20
f 20/20/20 21/21/21 18/18/18
f 22/22/22 23/23/23 24/24/24
f 24/24/24 25/25/25 22/22/22
f 26/26/26 27/27/27 29/29/29
f 28/28/28 29/29/29 27/27/27
f 30/30/30 31/31/31 32/32/32
f 32/32/32 33/33/33 30/30/30
f 34/34/34 35/35/35 37/37/37
f 36/36/36 37/37/37 35/35/35
f 37/37/37 38/38/38 34/34/34