mtllib chair.mtl
v 9.750000953674316 0.11101999133825302 1.7319391965866089
v 9.750000953674316 -3.180389642715454 -1.4516428709030151
v 9.750000953674316 -3.1803247928619385 -1.4756430387496948
v 9.750000953674316 -3.1796324253082275 -1.7319409847259521
v 9.750000953674316 -3.000101089477539 -1.5582914352416992
v 9.750000953674316 0.10626337677240372 1.4463071823120117
v 9.750000953674316 2.9998855590820312 -1.5453221797943115
v 9.750000953674316 3.1803905963897705 -1.7319406270980835
v 9.750000953674316 3.1796514987945557 -1.4584587812423706
v 9.750000953674316 3.179603338241577 -1.4405773878097534
v -9.75 -3.180389642715454 -1.4516428709030151
v -9.75 0.11101999133825302 1.7319391965866089
v -9.75 3.179603338241577 -1.4405773878097534
v -9.75 3.1796514987945557 -1.4584587812423706
v -9.75 3.1803905963897705 -1.7319406270980835
v -9.75 2.9998855590820312 -1.5453221797943115
v -9.75 0.10626337677240372 1.4463071823120117
v -9.75 -3.000101089477539 -1.5582914352416992
v -9.75 -3.1796324253082275 -1.7319409847259521
v -9.75 -3.1803247928619385 -1.4756430387496948
v 1.9435502290725708 0.9106999635696411 0.6146245002746582
v 1.9435502290725708 0.15908145904541016 1.3917001485824585
v 1.9435502290725708 0.3042755424976349 1.5321378707885742
v 1.9435502290725708 1.0558940172195435 0.755061686038971
v 1.9435502290725708 0.15908145904541016 1.3917001485824585
v 0.9144502282142639 0.15908145904541016 1.3917001485824585
v 0.9144502282142639 0.3042755424976349 1.5321378707885742
v 1.9435502290725708 0.3042755424976349 1.5321378707885742
v 0.9144502282142639 0.15908145904541016 1.3917001485824585
v 0.9144502282142639 0.9106999635696411 0.6146245002746582
v 0.9144502282142639 1.0558940172195435 0.755061686038971
v 0.9144502282142639 0.3042755424976349 1.5321378707885742
v 1.9435502290725708 1.0558940172195435 0.755061686038971
v 0.9144502282142639 1.0558940172195435 0.755061686038971
v 0.9144502282142639 0.9106999635696411 0.6146245002746582
v 1.9435502290725708 0.9106999635696411 0.6146245002746582
v 2.5559749603271484 -2.5245354175567627 -0.8172745108604431
v 2.5559749603271484 -2.3840980529785156 -0.962468683719635
v 2.5559749603271484 -1.6070221662521362 -0.21085043251514435
v 2.5559749603271484 -1.7474596500396729 -0.06565625965595245
v 2.5559749603271484 -1.7474596500396729 -0.06565625965595245
v 2.5559749603271484 -1.6070221662521362 -0.21085043251514435
v 3.5850751399993896 -1.6070221662521362 -0.21085043251514435
v 3.5850751399993896 -1.7474596500396729 -0.06565625965595245
v 3.5850751399993896 -1.7474596500396729 -0.06565625965595245
v 3.5850751399993896 -1.6070221662521362 -0.21085043251514435
v 3.5850751399993896 -2.3840980529785156 -0.962468683719635
v 3.5850751399993896 -2.5245354175567627 -0.8172745108604431
v 3.5850751399993896 -2.5245354175567627 -0.8172745108604431
v 3.5850751399993896 -2.3840980529785156 -0.962468683719635
v 2.5559749603271484 -2.3840980529785156 -0.962468683719635
v 2.5559749603271484 -2.5245354175567627 -0.8172745108604431
v 9.750000953674316 -3.180389642715454 -1.4516428709030151
v 9.750000953674316 0.11101999133825302 1.7319391965866089
v -9.75 0.11101999133825302 1.7319391965866089
v -9.75 -3.180389642715454 -1.4516428709030151
v 2.5559749603271484 -2.5245354175567627 -0.8172745108604431
v 2.5559749603271484 -1.7474596500396729 -0.06565625965595245
v 3.5850751399993896 -1.7474596500396729 -0.06565625965595245
v 3.5850751399993896 -2.5245354175567627 -0.8172745108604431
v 9.750000953674316 0.10626337677240372 1.4463071823120117
v 9.750000953674316 -3.000101089477539 -1.5582914352416992
v 9.750000953674316 -3.1796324253082275 -1.7319409847259521
v -9.75 -3.1796324253082275 -1.7319409847259521
v -9.75 -3.000101089477539 -1.5582914352416992
v -9.75 0.10626337677240372 1.4463071823120117
v 2.5559749603271484 -1.6070221662521362 -0.21085043251514435
v 2.5559749603271484 -2.3840980529785156 -0.962468683719635
v 3.5850751399993896 -2.3840980529785156 -0.962468683719635
v 3.5850751399993896 -1.6070221662521362 -0.21085043251514435
v 9.750000953674316 0.11101999133825302 1.7319391965866089
v 9.750000953674316 3.179603338241577 -1.4405773878097534
v -9.75 3.179603338241577 -1.4405773878097534
v -9.75 0.11101999133825302 1.7319391965866089
v 1.9435502290725708 1.0558940172195435 0.755061686038971
v 1.9435502290725708 0.3042755424976349 1.5321378707885742
v 0.9144502282142639 0.3042755424976349 1.5321378707885742
v 0.9144502282142639 1.0558940172195435 0.755061686038971
v 9.750000953674316 -3.1796324253082275 -1.7319409847259521
v 9.750000953674316 -3.1803247928619385 -1.4756430387496948
v 9.750000953674316 -3.180389642715454 -1.4516428709030151
v -9.75 -3.180389642715454 -1.4516428709030151
v -9.75 -3.1803247928619385 -1.4756430387496948
v -9.75 -3.1796324253082275 -1.7319409847259521
v 9.750000953674316 3.1803905963897705 -1.7319406270980835
v 9.750000953674316 2.9998855590820312 -1.5453221797943115
v 9.750000953674316 0.10626337677240372 1.4463071823120117
v -9.75 0.10626337677240372 1.4463071823120117
v -9.75 2.9998855590820312 -1.5453221797943115
v -9.75 3.1803905963897705 -1.7319406270980835
v 1.9435502290725708 0.15908145904541016 1.3917001485824585
v 1.9435502290725708 0.9106999635696411 0.6146245002746582
v 0.9144502282142639 0.9106999635696411 0.6146245002746582
v 0.9144502282142639 0.15908145904541016 1.3917001485824585
v 9.750000953674316 3.179603338241577 -1.4405773878097534
v 9.750000953674316 3.1796514987945557 -1.4584587812423706
v 9.750000953674316 3.1803905963897705 -1.7319406270980835
v -9.75 3.1803905963897705 -1.7319406270980835
v -9.75 3.1796514987945557 -1.4584587812423706
v -9.75 3.179603338241577 -1.4405773878097534
vt -5.1666669845581055 18.433494567871094
vt -12.041666984558105 11.819583892822266
vt -12.041666984558105 11.769583702087402
vt -12.041666984558105 11.235627174377441
vt -11.666666984558105 11.596385955810547
vt -5.178184509277344 17.838459014892578
vt 0.8333333730697632 11.589631080627441
vt 1.2083333730697632 11.199828147888184
vt 1.2083333730697632 11.769583702087402
vt 1.2083333730697632 11.80683708190918
vt 12.041666984558105 11.819583892822266
vt 5.1666669845581055 18.433494567871094
vt -1.2083333730697632 11.80683708190918
vt -1.2083333730697632 11.769583702087402
vt -1.2083333730697632 11.199828147888184
vt -0.8333333730697632 11.589631080627441
vt 5.178184509277344 17.838459014892578
vt 11.666666984558105 11.596385955810547
vt 12.041666984558105 11.235627174377441
vt 12.041666984558105 11.769583702087402
vt 3.506962537765503 16.10126304626465
vt 5.068454265594482 17.724395751953125
vt 4.765177249908447 18.016157150268555
vt 3.2036852836608887 16.393022537231445
vt -3.342604160308838 -8.635527610778809
vt -5.486562728881836 -8.635527610778809
vt -5.486562728881836 -9.056360244750977
vt -3.342604160308838 -9.056360244750977
vt -5.068454265594482 17.724395751953125
vt -3.506962537765503 16.10126304626465
vt -3.2036852836608887 16.393022537231445
vt -4.765177249908447 18.016157150268555
vt -3.342604160308838 9.056360244750977
vt -5.486562728881836 9.056360244750977
vt -5.486562728881836 8.635527610778809
vt -3.342604160308838 8.635527610778809
vt -10.671737670898438 13.13748836517334
vt -10.37997817993164 12.834211349487305
vt -8.756844520568848 14.395703315734863
vt -9.048604965209961 14.698980331420898
vt 2.066718816757202 -16.866252899169922
vt 2.066718816757202 -16.44542121887207
vt -0.07723958790302277 -16.44542121887207
vt -0.07723958790302277 -16.866252899169922
vt 9.048604965209961 14.698980331420898
vt 8.756844520568848 14.395703315734863
vt 10.37997817993164 12.834211349487305
vt 10.671737670898438 13.13748836517334
vt -0.07723958790302277 16.866252899169922
vt -0.07723958790302277 16.44542121887207
vt 2.066718816757202 16.44542121887207
vt 2.066718816757202 16.866252899169922
vt 25.023658752441406 -62.13288497924805
vt 40.04710388183594 -62.13288497924805
vt 40.04710388183594 1.8434910774230957
vt 25.023658752441406 1.8434910774230957
vt 28.01726722717285 -38.53044128417969
vt 31.56418228149414 -38.53044128417969
vt 31.56418228149414 -41.90675354003906
vt 28.01726722717285 -41.90675354003906
vt -12.920833587646484 8.635527610778809
vt -12.920833587646484 -0.3680204749107361
vt -12.920833587646484 -0.8883779644966125
vt 27.70416831970215 -0.8883779644966125
vt 27.70416831970215 -0.3680204749107361
vt 27.70416831970215 8.635527610778809
vt 2.066718816757202 3.6697065830230713
vt 2.066718816757202 1.4174147844314575
vt -0.07723958790302277 1.4174147844314575
vt -0.07723958790302277 3.6697065830230713
vt 35.049503326416016 68.13288879394531
vt 20.568742752075195 68.13288879394531
vt 20.568742752075195 4.156508922576904
vt 35.049503326416016 4.156508922576904
vt 30.590606689453125 42.521175384521484
vt 34.13752365112305 42.521175384521484
vt 34.13752365112305 39.14486312866211
vt 30.590606689453125 39.14486312866211
vt -12.920833587646484 -11.235627174377441
vt -12.920833587646484 -11.769583702087402
vt -12.920833587646484 -11.819583892822266
vt 27.70416831970215 -11.819583892822266
vt 27.70416831970215 -11.769583702087402
vt 27.70416831970215 -11.235627174377441
vt -12.920833587646484 -7.233524799346924
vt -12.920833587646484 -7.774423599243164
vt -12.920833587646484 -16.44542121887207
vt 27.70416831970215 -16.44542121887207
vt 27.70416831970215 -7.774423599243164
vt 27.70416831970215 -7.233524799346924
vt 3.342604160308838 -16.287145614624023
vt 3.342604160308838 -14.034854888916016
vt 5.486562728881836 -14.034854888916016
vt 5.486562728881836 -16.287145614624023
vt -12.920833587646484 11.80683708190918
vt -12.920833587646484 11.769583702087402
vt -12.920833587646484 11.199828147888184
vt 27.70416831970215 11.199828147888184
vt 27.70416831970215 11.769583702087402
vt 27.70416831970215 11.80683708190918
vn 1 -1.6511502290821327e-15 -4.461452400544571e-18
vn 1 -1.6511502290821327e-15 -4.461452400544571e-18
vn 1 -1.6511502290821327e-15 -4.461452400544571e-18
vn 1 -1.6511502290821327e-15 -4.461452400544571e-18
vn 1 -1.6511502290821327e-15 -4.461452400544571e-18
vn 1 -1.6511502290821327e-15 -4.461452400544571e-18
vn 1 -1.6511502290821327e-15 -4.461452400544571e-18
vn 1 -1.6511502290821327e-15 -4.461452400544571e-18
vn 1 -1.6511502290821327e-15 -4.461452400544571e-18
vn 1 -1.6511502290821327e-15 -4.461452400544571e-18
vn -1 1.6511502290821327e-15 4.461452400544571e-18
vn -1 1.6511502290821327e-15 4.461452400544571e-18
vn -1 1.6511502290821327e-15 4.461452400544571e-18
vn -1 1.6511502290821327e-15 4.461452400544571e-18
vn -1 1.6511502290821327e-15 4.461452400544571e-18
vn -1 1.6511502290821327e-15 4.461452400544571e-18
vn -1 1.6511502290821327e-15 4.461452400544571e-18
vn -1 1.6511502290821327e-15 4.461452400544571e-18
vn -1 1.6511502290821327e-15 4.461452400544571e-18
vn -1 1.6511502290821327e-15 4.461452400544571e-18
vn -1 1.6056810769570482e-15 -1.2703817348276738e-16
vn -1 1.6056810769570482e-15 -1.2703817348276738e-16
vn -1 1.6056810769570482e-15 -1.2703817348276738e-16
vn -1 1.6056810769570482e-15 -1.2703817348276738e-16
vn 1.145036290515545e-15 0.6952349543571472 -0.7187824845314026
vn 1.145036290515545e-15 0.6952349543571472 -0.7187824845314026
vn 1.145036290515545e-15 0.6952349543571472 -0.7187824845314026
vn 1.145036290515545e-15 0.6952349543571472 -0.7187824845314026
vn 1 -1.6898393059809201e-15 -4.145769673111671e-17
vn 1 -1.6898393059809201e-15 -4.145769673111671e-17
vn 1 -1.6898393059809201e-15 -4.145769673111671e-17
vn 1 -1.6898393059809201e-15 -4.145769673111671e-17
vn -1.2108017284853819e-15 -0.6952349543571472 0.7187824845314026
vn -1.2108017284853819e-15 -0.6952349543571472 0.7187824845314026
vn -1.2108017284853819e-15 -0.6952349543571472 0.7187824845314026
vn -1.2108017284853819e-15 -0.6952349543571472 0.7187824845314026
vn 1 -9.002555213411955e-16 -8.707627340903072e-16
vn 1 -9.002555213411955e-16 -8.707627340903072e-16
vn 1 -9.002555213411955e-16 -8.707627340903072e-16
vn 1 -9.002555213411955e-16 -8.707627340903072e-16
vn -1.1898703796884257e-15 -0.7187826037406921 -0.695235013961792
vn -1.1898703796884257e-15 -0.7187826037406921 -0.695235013961792
vn -1.1898703796884257e-15 -0.7187826037406921 -0.695235013961792
vn -1.1898703796884257e-15 -0.7187826037406921 -0.695235013961792
vn -1 8.552581665677316e-16 8.272394813428618e-16
vn -1 8.552581665677316e-16 8.272394813428618e-16
vn -1 8.552581665677316e-16 8.272394813428618e-16
vn -1 8.552581665677316e-16 8.272394813428618e-16
vn 1.2556358176582624e-15 0.7187826037406921 0.695235013961792
vn 1.2556358176582624e-15 0.7187826037406921 0.695235013961792
vn 1.2556358176582624e-15 0.7187826037406921 0.695235013961792
vn 1.2556358176582624e-15 0.7187826037406921 0.695235013961792
vn -1.1357367157876401e-15 -0.6952349543571472 0.7187824845314026
vn -1.1357367157876401e-15 -0.6952349543571472 0.7187824845314026
vn -1.1357367157876401e-15 -0.6952349543571472 0.7187824845314026
vn -1.1357367157876401e-15 -0.6952349543571472 0.7187824845314026
vn -1.1357367157876401e-15 -0.6952349543571472 0.7187824845314026
vn -1.1357367157876401e-15 -0.6952349543571472 0.7187824845314026
vn -1.1357367157876401e-15 -0.6952349543571472 0.7187824845314026
vn -1.1357367157876401e-15 -0.6952349543571472 0.7187824845314026
vn 1.1357367157876401e-15 0.6952349543571472 -0.7187824845314026
vn 1.1357367157876401e-15 0.6952349543571472 -0.7187824845314026
vn 1.1357367157876401e-15 0.6952349543571472 -0.7187824845314026
vn 1.1357367157876401e-15 0.6952349543571472 -0.7187824845314026
vn 1.1357367157876401e-15 0.6952349543571472 -0.7187824845314026
vn 1.1357367157876401e-15 0.6952349543571472 -0.7187824845314026
vn 1.1357367157876401e-15 0.6952349543571472 -0.7187824845314026
vn 1.1357367157876401e-15 0.6952349543571472 -0.7187824845314026
vn 1.1357367157876401e-15 0.6952349543571472 -0.7187824845314026
vn 1.1357367157876401e-15 0.6952349543571472 -0.7187824845314026
vn 1.1805708049605207e-15 0.7187826037406921 0.695235013961792
vn 1.1805708049605207e-15 0.7187826037406921 0.695235013961792
vn 1.1805708049605207e-15 0.7187826037406921 0.695235013961792
vn 1.1805708049605207e-15 0.7187826037406921 0.695235013961792
vn 1.1805708049605207e-15 0.7187826037406921 0.695235013961792
vn 1.1805708049605207e-15 0.7187826037406921 0.695235013961792
vn 1.1805708049605207e-15 0.7187826037406921 0.695235013961792
vn 1.1805708049605207e-15 0.7187826037406921 0.695235013961792
vn -1.638183636967327e-15 -0.9999964237213135 -0.002702017081901431
vn -1.638183636967327e-15 -0.9999964237213135 -0.002702017081901431
vn -1.638183636967327e-15 -0.9999964237213135 -0.002702017081901431
vn -1.638183636967327e-15 -0.9999964237213135 -0.002702017081901431
vn -1.638183636967327e-15 -0.9999964237213135 -0.002702017081901431
vn -1.638183636967327e-15 -0.9999964237213135 -0.002702017081901431
vn -1.1805708049605207e-15 -0.7187826037406921 -0.695235013961792
vn -1.1805708049605207e-15 -0.7187826037406921 -0.695235013961792
vn -1.1805708049605207e-15 -0.7187826037406921 -0.695235013961792
vn -1.1805708049605207e-15 -0.7187826037406921 -0.695235013961792
vn -1.1805708049605207e-15 -0.7187826037406921 -0.695235013961792
vn -1.1805708049605207e-15 -0.7187826037406921 -0.695235013961792
vn -1.1805708049605207e-15 -0.7187826037406921 -0.695235013961792
vn -1.1805708049605207e-15 -0.7187826037406921 -0.695235013961792
vn -1.1805708049605207e-15 -0.7187826037406921 -0.695235013961792
vn -1.1805708049605207e-15 -0.7187826037406921 -0.695235013961792
vn 1.638183636967327e-15 0.9999964237213135 0.002702017081901431
vn 1.638183636967327e-15 0.9999964237213135 0.002702017081901431
vn 1.638183636967327e-15 0.9999964237213135 0.002702017081901431
vn 1.638183636967327e-15 0.9999964237213135 0.002702017081901431
vn 1.638183636967327e-15 0.9999964237213135 0.002702017081901431
vn 1.638183636967327e-15 0.9999964237213135 0.002702017081901431
usemtl 0
f 9/9/9 10/10/10 7/7/7
f 7/7/7 8/8/8 9/9/9
f 7/7/7 10/10/10 6/6/6
f 6/6/6 1/1/1 2/2/2
f 1/1/1 6/6/6 10/10/10
f 4/4/4 5/5/5 3/3/3
f 3/3/3 5/5/5 2/2/2
f 5/5/5 6/6/6 2/2/2
f 12/12/12 17/17/17 11/11/11
f 17/17/17 12/12/12 13/13/13
f 18/18/18 20/20/20 11/11/11
f 18/18/18 19/19/19 20/20/20
f 18/18/18 11/11/11 17/17/17
f 13/13/13 14/14/14 16/16/16
f 15/15/15 16/16/16 14/14/14
f 16/16/16 17/17/17 13/13/13
f 21/21/21 22/22/22 23/23/23
f 23/23/23 24/24/24 21/21/21
f 25/25/25 26/26/26 27/27/27
f 27/27/27 28/28/28 25/25/25
f 29/29/29 30/30/30 31/31/31
f 31/31/31 32/32/32 29/29/29
f 33/33/33 34/34/34 35/35/35
f 35/35/35 36/36/36 33/33/33
f 37/37/37 38/38/38 39/39/39
f 39/39/39 40/40/40 37/37/37
f 41/41/41 42/42/42 43/43/43
f 43/43/43 44/44/44 41/41/41
f 45/45/45 46/46/46 47/47/47
f 47/47/47 48/48/48 45/45/45
f 49/49/49 50/50/50 51/51/51
f 51/51/51 52/52/52 49/49/49
f 62/62/62 63/63/63 69/69/69
f 62/62/62 70/70/70 61/61/61
f 70/70/70 62/62/62 69/69/69
f 61/61/61 70/70/70 67/67/67
f 63/63/63 68/68/68 69/69/69
f 64/64/64 65/65/65 68/68/68
f 65/65/65 67/67/67 68/68/68
f 67/67/67 65/65/65 66/66/66
f 67/67/67 66/66/66 61/61/61
f 64/64/64 68/68/68 63/63/63
f 80/80/80 81/81/81 83/83/83
f 79/79/79 80/80/80 84/84/84
f 82/82/82 83/83/83 81/81/81
f 83/83/83 84/84/84 80/80/80
f 87/87/87 91/91/91 92/92/92
f 91/91/91 87/87/87 94/94/94
f 85/85/85 86/86/86 92/92/92
f 92/92/92 86/86/86 87/87/87
f 85/85/85 92/92/92 93/93/93
f 94/94/94 88/88/88 93/93/93
f 88/88/88 94/94/94 87/87/87
f 93/93/93 89/89/89 90/90/90
f 89/89/89 93/93/93 88/88/88
f 93/93/93 90/90/90 85/85/85
f 96/96/96 97/97/97 98/98/98
f 95/95/95 96/96/96 99/99/99
f 98/98/98 99/99/99 96/96/96
f 99/99/99 100/100/100 95/95/95
usemtl 1
f 54/54/54 59/59/59 53/53/53
f 59/59/59 54/54/54 58/58/58
f 53/53/53 60/60/60 57/57/57
f 60/60/60 53/53/53 59/59/59
f 58/58/58 55/55/55 56/56/56
f 55/55/55 58/58/58 54/54/54
f 57/57/57 56/56/56 53/53/53
f 56/56/56 57/57/57 58/58/58
f 72/72/72 75/75/75 71/71/71
f 75/75/75 72/72/72 78/78/78
f 71/71/71 76/76/76 77/77/77
f 76/76/76 71/71/71 75/75/75
f 78/78/78 73/73/73 74/74/74
f 73/73/73 78/78/78 72/72/72
f 77/77/77 74/74/74 71/71/71
f 74/74/74 77/77/77 78/78/78
